<svg width="40" height="32" viewBox="0 0 40 32" fill="none" xmlns="http://www.w3.org/2000/svg">
<path d="M19.8714 16.2404L39.2026 8.1202L19.8714 0L0.540283 8.1202L3.50285 9.36162V12.7117C2.46843 12.8818 1.68228 13.7831 1.68228 14.897C1.68228 15.7642 2.1788 16.5125 2.89047 16.8781C2.40223 18.2556 2.07949 20.6534 2.07949 23.3913H5.5965C5.5965 20.6534 5.27377 18.2471 4.78552 16.8781C5.50548 16.521 5.99372 15.7727 5.99372 14.897C5.99372 13.7916 5.20756 12.8818 4.17315 12.7202V9.65071L19.8714 16.2404ZM28.1633 18.1535L26.7979 19.8711H29.959L30.8445 18.8083C30.0004 18.4171 29.3218 18.2896 28.1633 18.1535ZM26.5579 18.06C25.2504 18.06 23.5705 18.3236 22.5444 18.6297L23.2395 19.8626L25.8926 19.8201L27.3257 18.06C26.8789 18.026 27.0213 18.06 26.5579 18.06ZM31.0679 18.8763L30.2487 19.8711H32.574C32.2679 19.565 31.5396 19.1144 31.0679 18.8763ZM22.4202 18.8168C21.4437 19.1314 21.0383 19.3524 20.5252 19.8626L22.9581 19.8201L22.4202 18.8168ZM19.226 19.8711C19.6149 20.2622 19.8383 20.6874 19.8714 21.1465H19.888C19.9128 20.6959 20.1445 20.2622 20.5335 19.8711H19.226ZM13.2015 18.06C12.9202 18.06 12.6388 18.0685 12.3657 18.0855L13.7891 19.8711H16.5944L17.2151 18.6977C16.0896 18.2981 14.6994 18.06 13.2015 18.06ZM17.4054 18.7742L16.8261 19.8711H19.226C18.7956 19.4375 18.1667 19.0633 17.4054 18.7742ZM12.1092 18.1025C10.9341 18.1961 9.85829 18.4341 8.97283 18.7742L9.87485 19.8626H13.516L12.1092 18.1025ZM8.76595 18.8593C8.10393 19.1399 7.55775 19.48 7.16882 19.8626H9.59348L8.76595 18.8593Z" fill="#F4A93F"/>
<path d="M21.1616 16.453L24.3062 22.337L29.0149 16.453H32.7636L26.8219 23.6634L32.4574 31.6476H28.6425L24.3062 25.5085V31.6476H21.1616V16.453Z" fill="#F4A93F"/>
<path d="M18.621 31.6561H15.4764V25.517L11.1402 31.6561H7.32523L12.9607 23.6719L7.01904 16.453H10.7678L15.4764 22.337L18.621 16.453V31.6561Z" fill="#F4A93F"/>
</svg>
