<svg width="206" height="256" viewBox="0 0 206 256" fill="none" xmlns="http://www.w3.org/2000/svg">
<path d="M24.726 229.965L21.8713 232.943V242.294H17.3186V204.494H21.8713V227.356L24.3077 224.428L32.601 215.667H38.1381L27.7776 226.79L39.344 242.294H34.0038L24.726 229.965ZM53.3959 242.786C49.7866 242.786 46.8499 241.605 44.5858 239.243C42.3217 236.864 41.1897 233.689 41.1897 229.719V228.882C41.1897 226.241 41.6901 223.886 42.6909 221.819C43.7081 219.736 45.119 218.111 46.9237 216.947C48.7448 215.765 50.7135 215.175 52.8299 215.175C56.2916 215.175 58.9823 216.315 60.9018 218.595C62.8213 220.876 63.7811 224.141 63.7811 228.39V230.285H45.7424C45.8081 232.91 46.5709 235.034 48.0311 236.659C49.5077 238.266 51.378 239.07 53.642 239.07C55.2499 239.07 56.6116 238.742 57.7272 238.086C58.8428 237.43 59.819 236.56 60.6557 235.477L63.4366 237.643C61.2053 241.072 57.8584 242.786 53.3959 242.786ZM52.8299 218.915C50.9924 218.915 49.4502 219.588 48.2034 220.933C46.9565 222.262 46.1854 224.132 45.8901 226.544H59.2284V226.2C59.0971 223.886 58.4737 222.098 57.3581 220.835C56.2424 219.555 54.7331 218.915 52.8299 218.915ZM74.0186 242.294H69.4659V204.494H74.0186V242.294ZM97.7666 242.294C97.5041 241.769 97.2909 240.834 97.1268 239.489C95.0104 241.687 92.4838 242.786 89.5471 242.786C86.9221 242.786 84.7647 242.048 83.0748 240.572C81.4014 239.079 80.5647 237.192 80.5647 234.911C80.5647 232.139 81.6147 229.99 83.7147 228.464C85.8311 226.922 88.8006 226.15 92.6233 226.15H97.053V224.059C97.053 222.467 96.5772 221.204 95.6256 220.269C94.6741 219.317 93.2713 218.841 91.4174 218.841C89.7932 218.841 88.4315 219.252 87.3323 220.072C86.233 220.892 85.6834 221.885 85.6834 223.05H81.1061C81.1061 221.721 81.5737 220.441 82.5088 219.211C83.4604 217.964 84.7401 216.979 86.3479 216.257C87.9721 215.536 89.7522 215.175 91.6881 215.175C94.7561 215.175 97.1596 215.946 98.8987 217.488C100.638 219.014 101.54 221.122 101.606 223.813V236.068C101.606 238.513 101.917 240.457 102.541 241.9V242.294H97.7666ZM90.2116 238.824C91.6389 238.824 92.9924 238.455 94.2721 237.717C95.5518 236.979 96.4787 236.019 97.053 234.838V229.374H93.4846C87.9065 229.374 85.1174 231.007 85.1174 234.272C85.1174 235.699 85.5932 236.815 86.5448 237.618C87.4963 238.422 88.7186 238.824 90.2116 238.824ZM124.246 235.231C124.246 234.001 123.779 233.049 122.844 232.377C121.925 231.688 120.309 231.097 117.996 230.605C115.699 230.113 113.869 229.522 112.508 228.833C111.162 228.144 110.162 227.323 109.505 226.372C108.865 225.42 108.546 224.288 108.546 222.976C108.546 220.794 109.464 218.948 111.302 217.439C113.156 215.929 115.518 215.175 118.389 215.175C121.408 215.175 123.853 215.954 125.723 217.513C127.61 219.071 128.553 221.065 128.553 223.493H123.976C123.976 222.246 123.442 221.171 122.376 220.269C121.326 219.366 119.997 218.915 118.389 218.915C116.732 218.915 115.436 219.276 114.501 219.998C113.566 220.72 113.098 221.663 113.098 222.828C113.098 223.927 113.533 224.756 114.403 225.314C115.272 225.872 116.839 226.405 119.103 226.913C121.383 227.422 123.229 228.029 124.64 228.734C126.051 229.44 127.093 230.293 127.765 231.294C128.455 232.278 128.799 233.484 128.799 234.911C128.799 237.29 127.847 239.202 125.944 240.645C124.041 242.073 121.572 242.786 118.537 242.786C116.404 242.786 114.517 242.409 112.877 241.654C111.236 240.9 109.948 239.85 109.013 238.504C108.094 237.143 107.635 235.674 107.635 234.099H112.188C112.27 235.625 112.877 236.839 114.009 237.741C115.157 238.627 116.667 239.07 118.537 239.07C120.26 239.07 121.638 238.726 122.671 238.037C123.721 237.331 124.246 236.396 124.246 235.231ZM150.234 235.231C150.234 234.001 149.766 233.049 148.831 232.377C147.912 231.688 146.296 231.097 143.983 230.605C141.686 230.113 139.857 229.522 138.495 228.833C137.15 228.144 136.149 227.323 135.493 226.372C134.853 225.42 134.533 224.288 134.533 222.976C134.533 220.794 135.452 218.948 137.289 217.439C139.143 215.929 141.506 215.175 144.377 215.175C147.396 215.175 149.84 215.954 151.71 217.513C153.597 219.071 154.54 221.065 154.54 223.493H149.963C149.963 222.246 149.43 221.171 148.363 220.269C147.313 219.366 145.985 218.915 144.377 218.915C142.72 218.915 141.424 219.276 140.488 219.998C139.553 220.72 139.086 221.663 139.086 222.828C139.086 223.927 139.521 224.756 140.39 225.314C141.26 225.872 142.826 226.405 145.09 226.913C147.371 227.422 149.217 228.029 150.628 228.734C152.038 229.44 153.08 230.293 153.753 231.294C154.442 232.278 154.787 233.484 154.787 234.911C154.787 237.29 153.835 239.202 151.932 240.645C150.029 242.073 147.56 242.786 144.524 242.786C142.392 242.786 140.505 242.409 138.864 241.654C137.224 240.9 135.936 239.85 135.001 238.504C134.082 237.143 133.622 235.674 133.622 234.099H138.175C138.257 235.625 138.864 236.839 139.996 237.741C141.145 238.627 142.654 239.07 144.524 239.07C146.247 239.07 147.625 238.726 148.659 238.037C149.709 237.331 150.234 236.396 150.234 235.231ZM165.664 242.294H161.111V215.667H165.664V242.294ZM160.742 208.604C160.742 207.866 160.963 207.242 161.406 206.734C161.866 206.225 162.538 205.971 163.424 205.971C164.31 205.971 164.983 206.225 165.442 206.734C165.902 207.242 166.131 207.866 166.131 208.604C166.131 209.342 165.902 209.957 165.442 210.45C164.983 210.942 164.31 211.188 163.424 211.188C162.538 211.188 161.866 210.942 161.406 210.45C160.963 209.957 160.742 209.342 160.742 208.604ZM180.405 229.965L177.55 232.943V242.294H172.997V204.494H177.55V227.356L179.987 224.428L188.28 215.667H193.817L183.456 226.79L195.023 242.294H189.683L180.405 229.965Z" fill="white"/>
<path d="M103 84.0498L205.584 42.0957L103 0.141541L0.416016 42.0957L16.1374 48.5096V65.8184C10.6481 66.697 6.47621 71.3537 6.47621 77.1087C6.47621 81.5897 9.11107 85.4556 12.8877 87.3446C10.2968 94.4614 8.5841 106.85 8.5841 120.996H27.2477C27.2477 106.85 25.5351 94.4175 22.9441 87.3446C26.7647 85.4995 29.3556 81.6336 29.3556 77.1087C29.3556 71.3977 25.1837 66.697 19.6944 65.8624V50.0033L103 84.0498ZM147.002 93.9343L139.756 102.808H156.532L161.231 97.317C156.751 95.2961 153.15 94.6372 147.002 93.9343ZM138.483 93.451C131.544 93.451 122.63 94.8129 117.184 96.3944L120.873 102.764L134.953 102.545L142.558 93.451C140.186 93.2753 140.942 93.451 138.483 93.451ZM162.416 97.6684L158.069 102.808H170.409C168.784 101.227 164.919 98.8985 162.416 97.6684ZM116.526 97.3609C111.344 98.9863 109.192 100.129 106.469 102.764L119.38 102.545L116.526 97.3609ZM99.5748 102.808C101.639 104.829 102.824 107.026 103 109.398H103.088C103.22 107.07 104.449 104.829 106.513 102.808H99.5748ZM67.6051 93.451C66.112 93.451 64.6189 93.495 63.1697 93.5828L70.723 102.808H85.61L88.9036 96.7458C82.9312 94.6811 75.5536 93.451 67.6051 93.451ZM89.9136 97.1412L86.8396 102.808H99.5748C97.2912 100.568 93.9537 98.6349 89.9136 97.1412ZM61.8084 93.6707C55.5725 94.1539 49.8637 95.384 45.1648 97.1412L49.9515 102.764H69.2738L61.8084 93.6707ZM44.0669 97.5805C40.5538 99.0303 37.6554 100.787 35.5915 102.764H48.4584L44.0669 97.5805Z" fill="white"/>
<path d="M109.847 85.1484L126.535 115.549L151.522 85.1484H171.415L139.885 122.402L169.79 163.653H149.546L126.535 131.935V163.653H109.847V85.1484Z" fill="white"/>
<path d="M96.3644 163.699H79.6769V131.98L56.6658 163.699H36.4212L66.3269 122.447L34.7964 85.1499H54.6896L79.6769 115.55L96.3644 85.1499V163.699Z" fill="white"/>
</svg>
